<svg width="72" height="73" viewBox="0 0 72 73" fill="none" xmlns="http://www.w3.org/2000/svg">
<path d="M17.6931 0.953094L17.6856 0.953429L17.6783 0.954871C16.3998 1.20614 15.3168 2.3258 15.2419 3.65768L15.2417 3.65767L15.2417 3.66324C15.2366 12.9636 15.2379 22.264 15.2392 31.5643C15.2407 42.0276 15.2422 52.4908 15.2345 62.9538L15.2345 62.9555C15.2771 65.5332 13.4237 68.0113 10.9108 68.629L10.9108 68.6289L10.9062 68.6303C8.33421 69.3963 5.35242 68.0074 4.22102 65.5832L4.22108 65.5832L4.2194 65.5799C3.64021 64.4496 3.55816 63.146 3.59949 61.8773L3.59954 61.8773L3.59954 61.8741C3.60118 56.029 3.60095 50.1839 3.60073 44.3391C3.60046 37.3257 3.60019 30.3127 3.60317 23.3001L3.60311 23.2975C3.60001 23.1758 3.60144 23.0528 3.60316 22.9276L3.60346 22.9056C3.60509 22.7881 3.60675 22.6686 3.6047 22.5493C3.60036 22.2958 3.57931 22.0375 3.5034 21.7841L3.50421 21.7839L3.49891 21.772C3.1761 21.0495 2.28857 20.647 1.53525 20.9134C0.825688 21.1132 0.398859 21.8568 0.463321 22.5602V22.6351V22.7148V22.7944V22.874V22.9536V23.0333V23.1129V23.1925V23.2721V23.3517V23.4314V23.511V23.5906V23.6702V23.7498V23.8295V23.9091V23.9887V24.0683V24.148V24.2276V24.3072V24.3868V24.4664V24.5461V24.6257V24.7053V24.7849V24.8646V24.9442V25.0238V25.1034V25.183V25.2627V25.3423V25.4219V25.5015V25.5812V25.6608V25.7404V25.82V25.8997V25.9793V26.0589V26.1385V26.2181V26.2978V26.3774V26.457V26.5366V26.6163V26.6959V26.7755V26.8551V26.9348V27.0144V27.094V27.1736V27.2532V27.3329V27.4125V27.4921V27.5717V27.6514V27.731V27.8106V27.8902V27.9699V28.0495V28.1291V28.2087V28.2884V28.368V28.4476V28.5272V28.6068V28.6865V28.7661V28.8457V28.9253V29.005V29.0846V29.1642V29.2438V29.3235V29.4031V29.4827V29.5623V29.642V29.7216V29.8012V29.8808V29.9605V30.0401V30.1197V30.1993V30.279V30.3586V30.4382V30.5178V30.5975V30.6771V30.7567V30.8363V30.916V30.9956V31.0752V31.1548V31.2345V31.3141V31.3937V31.4733V31.553V31.6326V31.7122V31.7918V31.8715V31.9511V32.0307V32.1103V32.19V32.2696V32.3492V32.4288V32.5085V32.5881V32.6677V32.7473V32.827V32.9066V32.9862V33.0658V33.1455V33.2251V33.3047V33.3843V33.464V33.5436V33.6232V33.7028V33.7825V33.8621V33.9417V34.0213V34.101V34.1806V34.2602V34.3398V34.4195V34.4991V34.5787V34.6583V34.738V34.8176V34.8972V34.9768V35.0565V35.1361V35.2157V35.2953V35.375V35.4546V35.5342V35.6139V35.6935V35.7731V35.8527V35.9324V36.012V36.0916V36.1712V36.2509V36.3305V36.4101V36.4897V36.5694V36.649V36.7286V36.8082V36.8879V36.9675V37.0471V37.1268V37.2064V37.286V37.3656V37.4453V37.5249V37.6045V37.6841V37.7638V37.8434V37.923V38.0026V38.0823V38.1619V38.2415V38.3211V38.4008V38.4804V38.56V38.6396V38.7193V38.7989V38.8785V38.9582V39.0378V39.1174V39.197V39.2767V39.3563V39.4359V39.5155V39.5952V39.6748V39.7544V39.834V39.9137V39.9933V40.0729V40.1525V40.2322V40.3118V40.3914V40.4711V40.5507V40.6303V40.7099V40.7896V40.8692V40.9488V41.0284V41.1081V41.1877V41.2673V41.3469V41.4266V41.5062V41.5858V41.6655V41.7451V41.8247V41.9043V41.984V42.0636V42.1432V42.2228V42.3025V42.3821V42.4617V42.5413V42.621V42.7006V42.7802V42.8599V42.9395V43.0191V43.0987V43.1784V43.258V43.3376V43.4172V43.4969V43.5765V43.6561V43.7357V43.8154V43.895V43.9746V44.0543V44.1339V44.2135V44.2931V44.3728V44.4524V44.532V44.6116V44.6913V44.7709V44.8505V44.9301V45.0098V45.0894V45.169V45.2486V45.3283V45.4079V45.4875V45.5672V45.6468V45.7264V45.806V45.8857V45.9653V46.0449V46.1245V46.2042V46.2838V46.3634V46.443V46.5227V46.6023V46.6819V46.7616V46.8412V46.9208V47.0004V47.0801V47.1597V47.2393V47.3189V47.3986V47.4782V47.5578V47.6374V47.7171V47.7967V47.8763V47.9559V48.0356V48.1152V48.1948V48.2745V48.3541V48.4337V48.5133V48.593V48.6726V48.7522V48.8318V48.9115V48.9911V49.0707V49.1503V49.23V49.3096V49.3892V49.4688V49.5485V49.6281V49.7077V49.7873V49.867V49.9466V50.0262V50.1059V50.1855V50.2651V50.3447V50.4244V50.504V50.5836V50.6632V50.7429V50.8225V50.9021V50.9817V51.0614V51.141V51.2206V51.3002V51.3799V51.4595V51.5391V51.6187V51.6984V51.778V51.8576V51.9372V52.0169V52.0965V52.1761V52.2557V52.3354V52.415V52.4946V52.5743V52.6539V52.7335V52.8131V52.8928V52.9724V53.052V53.1316V53.2113V53.2909V53.3705V53.4501V53.5298V53.6094V53.689V53.7686V53.8483V53.9279V54.0075V54.0871V54.1668V54.2464V54.326V54.4056V54.4853V54.5649V54.6445V54.7241V54.8038V54.8834V54.963V55.0426V55.1223V55.2019V55.2815V55.3611V55.4408V55.5204V55.6V55.6796V55.7593V55.8389V55.9185V55.9981V56.0777V56.1574V56.237V56.3166V56.3962V56.4759V56.5555V56.6351V56.7147V56.7944V56.874V56.9536V57.0332V57.1129V57.1925V57.2721V57.3517V57.4314V57.511V57.5906V57.6702V57.7499V57.8295V57.9091V57.9887V58.0684V58.148V58.2276V58.3072V58.3868V58.4665V58.5461V58.6257V58.7053V58.785V58.8646V58.9442V59.0238V59.1035V59.1831V59.2627V59.3423V59.4219V59.5016V59.5812V59.6608V59.7404V59.8201V59.8997V59.9793V60.0589V60.1386V60.2182V60.2978V60.3774V60.457V60.5367V60.6163V60.6959V60.7755V60.8552V60.9348V61.0144V61.094V61.1736V61.2533V61.3329V61.4125V61.4921V61.5718V61.6514V61.731V61.8106V61.8903V61.9699V62.0495V62.1291V62.2087V62.2884V62.368V62.4476V62.5272V62.6068V62.6865V62.7661V62.8457V62.9253V63.005V63.0846V63.1642V63.2438L0.463298 63.3234L0.463344 63.3256C0.508939 65.4469 1.3712 67.5396 2.81311 69.0949C4.4151 70.85 6.74429 71.9516 9.13079 71.9862H9.13226C17.8751 71.9844 26.618 71.9849 35.3606 71.9853H35.3607C44.1033 71.9858 52.8457 71.9862 61.5876 71.9845L61.5914 71.9844C64.5108 71.8733 67.366 70.4523 69.1869 68.16C70.7534 66.2673 71.6177 63.7947 71.538 61.3353C71.5355 52.3148 71.5362 43.2938 71.5368 34.2728C71.5375 24.1199 71.5383 13.9669 71.5345 3.81468V3.81414C71.5251 2.21426 70.0417 0.829154 68.4488 0.909731C60.1395 0.907671 51.8307 0.907965 43.5222 0.908259C37.2907 0.908479 31.0594 0.908699 24.8281 0.907918L24.8268 0.907935C23.9237 0.919586 23.0168 0.913436 22.1086 0.907278C20.6363 0.897293 19.1607 0.887287 17.6931 0.953094ZM18.3689 61.515V61.5136C18.3703 54.3173 18.3694 47.1214 18.3684 39.9256C18.3669 27.9661 18.3653 16.0072 18.3743 4.04816C28.9946 4.0527 39.615 4.05219 50.2358 4.05167C56.2904 4.05137 62.3451 4.05107 68.4 4.05172C68.3982 23.1468 68.3982 42.2436 68.3982 61.3387V61.3389C68.4018 63.3151 67.6746 65.3206 66.2322 66.6905L66.2321 66.6904L66.2289 66.6937C64.8499 68.1279 62.8479 68.8621 60.8672 68.8496H60.8666C52.3392 68.8538 43.812 68.8532 35.2844 68.8526C28.959 68.8522 22.6334 68.8517 16.3073 68.8532C17.0843 67.7569 17.8113 66.5824 18.1189 65.2394C18.3905 64.2911 18.3804 63.3062 18.3706 62.3428C18.3678 62.0646 18.3649 61.7882 18.3689 61.515Z" fill="white" stroke="#014086" stroke-width="0.2"/>
<path d="M26.0374 33.3813C26.6619 33.3818 27.2865 33.3824 27.911 33.3831C33.1434 33.3882 38.3766 33.3933 43.6084 33.3761C43.6212 32.4992 43.604 31.6228 43.5868 30.7444C43.5832 30.5588 43.5795 30.3732 43.5762 30.1874C43.5563 29.0917 43.5463 27.9935 43.605 26.8945C43.599 26.2957 43.5994 25.6964 43.5998 25.0977C43.6 24.7985 43.6002 24.4994 43.5996 24.2006M26.0374 33.3813L43.6996 24.1999M26.0374 33.3813C26.038 32.5078 26.0386 31.6344 26.0392 30.7609C26.0427 25.8047 26.0462 20.8483 26.0358 15.892M26.0374 33.3813L26.0358 15.892M43.5996 24.2006C43.5996 24.2004 43.5996 24.2003 43.5996 24.2001L43.6996 24.1999M43.5996 24.2006C43.5996 24.2008 43.5996 24.201 43.5996 24.2012L43.6996 24.1999M43.5996 24.2006C43.5853 23.1435 43.593 22.0884 43.6007 21.0346C43.6132 19.3172 43.6257 17.603 43.5431 15.8886M43.6996 24.1999C43.6854 23.1472 43.693 22.0937 43.7007 21.0402C43.7134 19.2886 43.7261 17.5369 43.6383 15.7887M43.5431 15.8886C43.5748 15.8886 43.6065 15.8887 43.6382 15.8887L43.6383 15.7887M43.5431 15.8886C42.9844 15.8879 42.4256 15.8872 41.8669 15.8865C36.5897 15.8797 31.3127 15.8729 26.0358 15.892M43.5431 15.8886C43.5415 15.857 43.54 15.8254 43.5384 15.7937L43.6383 15.7887M43.6383 15.7887C43.0479 15.788 42.4575 15.7872 41.8672 15.7865C36.5566 15.7797 31.2461 15.7729 25.9356 15.7923L26.0358 15.892M24.9135 12.7144L24.9127 12.7145L24.9068 12.7145C24.6229 12.7163 24.323 12.7181 24.0322 12.7928C23.3557 12.9381 22.8892 13.6139 22.9058 14.2821C22.9058 16.584 22.9056 18.8859 22.9054 21.1878C22.905 25.7915 22.9046 30.3953 22.9058 34.9991C22.8686 35.7415 23.4526 36.4427 24.2061 36.5011L24.206 36.5012L24.2116 36.5014C26.3949 36.5499 28.5799 36.539 30.7639 36.5281C32.063 36.5216 33.3617 36.5152 34.6593 36.5212L34.6606 36.5212C36.1291 36.51 37.5997 36.5199 39.0708 36.5297C41.1491 36.5436 43.2286 36.5575 45.3055 36.5122C46.1002 36.5078 46.7366 35.774 46.7293 35.0084C46.7347 28.1023 46.7329 21.1944 46.7311 14.2883C46.7666 13.4094 45.9749 12.6846 45.1162 12.7253C41.5261 12.7147 37.9344 12.7164 34.3426 12.7182C31.1992 12.7197 28.0558 12.7212 24.9135 12.7144Z" fill="white" stroke="#014086" stroke-width="0.2"/>
<path d="M11.4374 62.4821L11.4376 62.4821L11.4376 62.4725C11.4334 55.0746 11.4343 47.6749 11.4352 40.2748C11.4361 32.3819 11.437 24.4886 11.4318 16.5967C11.4364 16.1666 11.289 15.7584 11.0519 15.455C10.8206 15.1592 10.4847 14.9418 10.1016 14.9381C9.64514 14.8707 9.23953 15.1123 8.97237 15.456C8.70143 15.8046 8.54388 16.2883 8.58276 16.7854C8.58557 22.9159 8.58442 29.0469 8.58327 35.1781C8.58148 44.7211 8.57969 54.2645 8.59283 63.8069L8.59292 63.8745L8.62705 63.9328C8.64852 63.9695 8.67077 64.0084 8.69376 64.0486C8.76577 64.1743 8.84505 64.3128 8.93064 64.4376C9.04554 64.6052 9.18845 64.7745 9.37915 64.8925L9.388 64.898L9.39727 64.9027C10.0147 65.2171 10.8094 65.0191 11.1872 64.3054C11.3695 64.0112 11.4209 63.6793 11.435 63.3712C11.4421 63.2149 11.4398 63.0572 11.4374 62.9089L11.4371 62.8927C11.4347 62.7478 11.4325 62.6123 11.4374 62.4821Z" fill="white" stroke="#014086" stroke-width="0.5"/>
<path d="M50.2403 15.1097L50.2403 15.1092L50.2298 15.1104C49.8895 15.1512 49.5957 15.3532 49.373 15.626C49.1501 15.8991 48.9926 16.2498 48.9253 16.6048L48.9253 16.6048L48.9251 16.606C48.8271 17.1597 48.9827 17.7305 49.2834 18.1528C49.5829 18.5732 50.0374 18.8601 50.5441 18.817C52.6978 18.8199 54.8513 18.8189 57.005 18.8179C59.6388 18.8166 62.2728 18.8154 64.9074 18.8213L64.9101 18.8213C64.9493 18.8203 64.9894 18.8198 65.0303 18.8192C65.3397 18.8149 65.6919 18.81 65.9997 18.6214C66.55 18.3129 66.8131 17.6311 66.8174 16.97C66.8216 16.3091 66.5676 15.6228 66.0264 15.3027C65.8152 15.1608 65.5861 15.1102 65.3621 15.0917C65.2499 15.0824 65.1374 15.081 65.0287 15.0808C65.0089 15.0808 64.9892 15.0808 64.9697 15.0808C64.881 15.0808 64.7954 15.0808 64.7111 15.0773L64.7111 15.0772L64.7064 15.0773C62.6988 15.0899 60.6896 15.0856 58.6803 15.0813C55.8662 15.0753 53.0516 15.0693 50.2403 15.1097Z" fill="white" stroke="#014086" stroke-width="0.2"/>
<path d="M48.9022 24.4729C48.8693 24.9924 49.0477 25.4999 49.3465 25.8701C49.6442 26.2389 50.07 26.4806 50.5348 26.4466C52.5303 26.4483 54.5259 26.4476 56.5214 26.4468C59.3728 26.4456 62.2242 26.4445 65.0752 26.4509C65.6637 26.4953 66.3254 26.2249 66.6072 25.5578C66.8804 25.0125 66.8787 24.3225 66.6688 23.7638C66.4588 23.2049 66.0278 22.7502 65.4231 22.7287L65.4231 22.7287L65.4198 22.7287C64.5201 22.7268 63.6202 22.7243 62.7202 22.7218C58.5547 22.7104 54.3862 22.6989 50.2228 22.7417L50.2228 22.7408L50.2095 22.7427C49.8391 22.7965 49.5239 23.0347 49.2977 23.3509C49.0711 23.6676 48.9273 24.0706 48.9022 24.4729ZM48.9022 24.4729C48.9022 24.4729 48.9022 24.4729 48.9022 24.473L49.002 24.4792L48.9022 24.4729C48.9022 24.4729 48.9022 24.4729 48.9022 24.4729Z" fill="white" stroke="#014086" stroke-width="0.2"/>
<path d="M49.8276 30.3647L49.8068 30.3702L49.7872 30.3791C49.4957 30.5115 49.2216 30.7055 49.0274 30.947C48.8345 31.1868 48.7111 31.4871 48.7545 31.8184C48.775 32.2183 49.0189 32.5598 49.34 32.7898C49.6656 33.0229 50.0948 33.1612 50.5392 33.1451C53.4454 33.1477 56.3518 33.1472 59.2585 33.1467C61.196 33.1463 63.1336 33.146 65.0713 33.1466C65.3687 33.1586 65.6902 33.1218 65.9782 33.0224C66.2614 32.9246 66.5335 32.7584 66.7026 32.4959C67.0399 32.069 67.0364 31.5211 66.7965 31.0871C66.5533 30.6471 66.0679 30.3183 65.4374 30.299L65.4374 30.2989L65.4312 30.2989C62.646 30.2831 59.8574 30.2855 57.0696 30.2879C55.0162 30.2896 52.9633 30.2914 50.9125 30.2859L50.9125 30.2858L50.9065 30.2859C50.8438 30.2873 50.7775 30.2874 50.7087 30.2876C50.4343 30.2881 50.1194 30.2888 49.8276 30.3647Z" fill="white" stroke="#014086" stroke-width="0.5"/>
<path d="M24.6398 42.3012C24.3132 42.2925 23.977 42.3492 23.6791 42.5401C23.0162 42.9521 22.8452 43.8428 23.0163 44.598C23.1022 44.9774 23.2755 45.3294 23.5229 45.5772C23.7705 45.8254 24.0928 45.9693 24.4719 45.9288C31.2591 45.9441 38.0466 45.9419 44.8337 45.9397C50.3643 45.9379 55.8947 45.9361 61.4244 45.9437C61.9979 45.9588 62.665 45.7895 62.9877 45.1229C63.2989 44.5739 63.282 43.8673 63.0507 43.3022C62.8198 42.7379 62.3668 42.2976 61.7924 42.3097C55.7999 42.3035 49.8075 42.3048 43.8152 42.3061C37.4234 42.3075 31.0316 42.3089 24.6398 42.3012Z" fill="white" stroke="#014086" stroke-width="0.1"/>
<path d="M23.9142 57.5251L23.9142 57.5251L23.9104 57.5261C23.431 57.6523 23.0618 57.9691 22.8793 58.3564C22.6972 58.7426 22.7011 59.2034 22.9762 59.5878C23.1626 59.9053 23.4804 60.0903 23.8077 60.1937C24.1393 60.2985 24.5077 60.3289 24.8359 60.3187C32.6961 60.3178 40.5562 60.3181 48.4164 60.3184C52.3471 60.3186 56.2778 60.3187 60.2086 60.3187L60.2117 60.3187C60.3726 60.3167 60.5388 60.3183 60.7083 60.3199C61.123 60.3238 61.5569 60.3279 61.9786 60.2808C62.37 60.253 62.7371 60.0894 63.0025 59.8475C63.2613 59.6115 63.4421 59.2811 63.4171 58.9144C63.4654 58.4632 63.2193 58.0768 62.8812 57.8255C62.538 57.5703 62.0706 57.4275 61.6024 57.4652C49.4652 57.4681 37.3299 57.4709 25.1945 57.4652L25.1945 57.465L25.1848 57.4654C25.0594 57.4702 24.9394 57.4676 24.8114 57.4648C24.7378 57.4631 24.6615 57.4615 24.5801 57.4611C24.3687 57.4602 24.1406 57.4693 23.9142 57.5251ZM37.1945 58.0259C37.2089 58.0258 37.2232 58.0256 37.2373 58.0255C37.2401 58.018 37.2425 58.0099 37.2443 58.0012C37.2468 57.9892 37.2477 57.9782 37.2476 57.9684C37.2105 57.9684 37.1734 57.9684 37.1363 57.9684C37.1362 57.9799 37.1375 57.9931 37.1412 58.0076C37.1429 58.0143 37.1449 58.0205 37.1472 58.0264C37.1628 58.0262 37.1787 58.0261 37.1945 58.0259Z" fill="white" stroke="#014086" stroke-width="0.5"/>
<path d="M24.8325 49.3947V49.3946L24.8306 49.3947C24.7824 49.3966 24.7334 49.3977 24.6839 49.3989C24.3992 49.4055 24.0958 49.4126 23.8198 49.5581C23.3433 49.7822 23.0536 50.3325 22.9757 50.9145C22.8977 51.4971 23.0292 52.1297 23.4171 52.5268C23.8077 52.9654 24.3521 53.0536 24.8495 53.03C29.3024 53.0292 33.7553 53.0296 38.2082 53.0299C46.0021 53.0306 53.7959 53.0312 61.5889 53.0257C62.045 53.0728 62.484 52.8345 62.7903 52.4537C63.0974 52.072 63.2761 51.5416 63.2089 50.9931C63.1126 50.0535 62.3767 49.3049 61.5781 49.3968C56.3293 49.3959 51.0801 49.3961 45.8308 49.3964C38.8316 49.3968 31.8321 49.3971 24.8325 49.3947Z" fill="white" stroke="#014086" stroke-width="0.1"/>
</svg>
