<svg width="56" height="57" viewBox="0 0 56 57" fill="none" xmlns="http://www.w3.org/2000/svg">
<path d="M19.6867 1.7609C21.7675 1.05984 23.9597 0.809129 26.1241 0.479493C31.9577 0.191642 37.8934 1.61233 42.8538 4.73226C49.542 8.91538 54.3677 16.0281 55.5892 23.8326C56.8897 31.0706 55.0551 38.7869 50.7588 44.7389C46.5555 50.6027 40.0531 54.7858 32.9237 55.9976C25.4785 57.3811 17.5038 55.4961 11.4287 50.988C5.44649 46.6378 1.31284 39.8036 0.318906 32.4681C-0.535693 27.2218 0.374629 21.7712 2.48326 16.9241C5.72981 9.74644 12.1161 4.01728 19.6867 1.7609ZM26.5978 2.84267C19.2594 3.25587 12.1347 6.93293 7.71304 12.8199C3.87199 17.7227 1.94449 24.0879 2.41359 30.2906C2.90592 37.4823 6.60299 44.4 12.3623 48.7502C16.6724 52.1023 22.074 53.9826 27.5314 54.108C34.4053 54.2519 41.3025 51.4802 46.1189 46.5635C51.8317 40.9875 54.6371 32.5841 53.3691 24.7008C52.5145 18.7395 49.4305 13.1496 44.9113 9.18003C39.937 4.79726 33.2163 2.45732 26.5978 2.84267Z" fill="white"/>
<path d="M23.9909 7.68842C29.6265 6.61923 35.7146 7.89385 40.3471 11.3209C44.7464 14.421 47.8115 19.3375 48.7492 24.632C49.8408 30.1041 48.4879 35.9683 45.2969 40.5205C41.8867 45.4696 36.2557 48.8125 30.2843 49.4382C25.5538 49.9704 20.646 48.8265 16.6479 46.2493C11.5955 43.0744 8.05461 37.6211 7.16355 31.7288C6.01591 25.169 8.37184 18.1889 13.0557 13.5013C16.0228 10.5458 19.8716 8.46813 23.9909 7.68842ZM20.0069 11.5263C17.3803 12.7122 15.2064 14.6545 13.289 16.7695C15.0711 19.851 16.8392 22.9419 18.6353 26.0187C21.761 20.542 25.0219 15.1354 28.031 9.59336C25.2879 9.87817 22.4841 10.2237 20.0069 11.5263ZM30.7182 9.88283C28.9874 12.969 27.0746 15.9571 25.5351 19.146C31.7585 18.992 38.0052 19.3888 44.2146 18.9313C41.2568 14.1643 36.2931 10.7139 30.7182 9.88283ZM11.7448 19.1273C8.98299 23.9924 8.59111 30.0807 10.5832 35.2912C14.1194 35.3006 17.6556 35.3146 21.1918 35.2866C18.0288 29.908 15.0617 24.4033 11.7448 19.1273ZM23.9536 21.5599C22.7687 23.899 21.2198 26.0467 20.1235 28.4279C21.1871 30.8091 22.764 32.9241 23.9116 35.2679C24.7933 35.2913 25.6751 35.3053 26.5615 35.3146C28.3996 35.3193 30.233 35.3239 32.0711 35.2959C33.256 32.9755 34.8142 30.8558 35.8639 28.4699C34.8095 26.0607 33.27 23.899 32.0477 21.5739C29.3466 21.5319 26.6501 21.5505 23.9536 21.5599ZM34.8049 21.5552C37.9539 26.9759 40.9676 32.4759 44.2519 37.8172C46.9624 32.8774 47.5595 26.7984 45.3949 21.5459C41.8633 21.5645 38.3364 21.5412 34.8049 21.5552ZM27.9237 47.2671C33.6012 47.1084 39.1015 44.5124 42.6984 40.0956C40.893 37.0094 39.1622 33.8719 37.3241 30.8044C34.273 36.3418 30.9421 41.7157 27.9237 47.2671ZM11.8101 37.8452C14.6232 42.7289 19.7176 46.1279 25.2692 47.0056C27.0886 43.9708 28.7774 40.866 30.6155 37.8452C26.9347 37.509 23.2492 37.8779 19.5637 37.8125C16.9791 37.8172 14.3899 37.7845 11.8101 37.8452Z" fill="white"/>
</svg>
