<svg width="52" height="57" viewBox="0 0 52 57" fill="none" xmlns="http://www.w3.org/2000/svg">
<path d="M23.4545 0.699738C26.1306 0.174878 29.2178 0.355196 31.3969 2.18738C33.4359 3.90042 34.175 6.72436 34.0476 9.31646C33.8756 12.3883 32.9548 15.5407 30.9286 17.901C30.5559 18.3196 30.2341 18.9378 30.5782 19.482C31.2536 20.2387 32.324 20.3675 33.2511 20.6315C36.0452 21.2723 38.6831 22.5957 40.875 24.4633C39.247 24.4344 37.4788 25.4229 36.0038 24.3571C33.7896 22.995 30.8458 23.3331 28.9215 21.4623C27.6631 20.3578 27.5579 18.3389 28.4213 16.964C28.9024 16.1912 29.5969 15.5761 30.0238 14.7647C31.0019 12.9132 31.4925 10.8105 31.5084 8.71753C31.4861 7.08499 31.0369 5.32044 29.788 4.2031C28.4468 3.11152 26.6117 2.90866 24.955 3.07932C23.5596 3.19202 22.1228 3.7845 21.3199 4.99522C20.1793 6.67283 20.1571 8.8399 20.4565 10.7783C20.8102 12.6846 21.3964 14.6552 22.7472 16.0978C24.0375 17.4309 24.4357 19.8137 23.0976 21.2594C21.6003 22.9467 19.214 22.9596 17.2547 23.7421C16.2989 24.0705 15.4515 24.6662 14.4798 24.9431C13.3551 24.824 12.2433 24.605 11.125 24.444C13.3424 22.3156 16.2862 21.1371 19.2331 20.4738C20.0774 20.2323 21.2371 19.9682 21.4187 18.9346C21.0873 17.8301 20.0774 17.1217 19.59 16.0946C17.9715 12.9679 17.2324 9.21986 18.1563 5.76158C18.7871 3.23066 20.9249 1.20528 23.4545 0.699738Z" fill="white"/>
<path d="M5.13595 26.9279C5.45925 25.7557 6.95089 25.9844 7.88875 25.8523C14.3322 25.7074 21.0669 27.5687 26.0027 31.8774C30.0135 28.3319 35.3046 26.5415 40.5477 25.9522C42.3242 25.8073 44.1455 25.7042 45.906 26.0584C46.4598 26.1518 46.9367 26.6252 46.9399 27.2145C47.0392 29.0887 46.9335 30.9725 46.9847 32.8499C49.331 33.3813 50.9667 35.5485 51.2612 37.8896C51.5525 40.2565 51.2836 42.7168 50.4673 44.9581C49.888 46.5328 48.6044 47.7532 47.0168 48.2653C46.9335 49.1702 47.1864 50.6998 45.9509 50.8769C42.1866 50.893 38.4415 51.4726 34.7957 52.4033C32.1645 53.086 29.7254 54.3548 27.4688 55.8586C26.7678 56.3835 25.7787 56.7216 25.0073 56.1323C22.6642 54.5898 20.1771 53.2083 17.4563 52.4709C13.708 51.4791 9.85092 50.8833 5.97141 50.8704C4.81908 50.6064 5.11034 49.1122 5.03352 48.2331C2.64564 47.6985 1.40049 45.2833 0.997172 43.0485C0.517034 40.4046 0.24175 37.3744 1.85181 35.0461C2.58162 33.8965 3.82038 33.2267 5.08154 32.8242C5.08795 30.8598 4.9599 28.8858 5.13595 26.9279ZM7.64228 28.4285C7.64868 30.0805 7.61667 31.7325 7.64548 33.3877C7.65188 33.874 7.95598 34.2862 8.13203 34.7273C8.76261 35.9993 8.93544 37.4323 9.07628 38.8299C9.27794 42.0405 9.21073 45.454 7.50784 48.291C13.4551 48.6517 19.5625 49.7112 24.732 52.8573C24.716 46.7968 24.748 40.7331 24.7192 34.6726C24.7896 34.0736 24.2198 33.7419 23.8485 33.3909C19.2904 29.8036 13.3687 28.2546 7.64228 28.4285ZM27.2895 34.2733C27.3247 40.4755 27.2831 46.6777 27.3087 52.8799C29.5269 51.5274 31.918 50.455 34.4372 49.8239C37.7213 49.022 41.0663 48.407 44.4528 48.3265C44.1455 47.2895 43.4989 46.3846 43.2845 45.3187C42.8588 43.5122 42.83 41.6412 42.8812 39.796C42.9836 38.0345 43.1436 36.2086 43.9439 34.6082C44.1071 34.2121 44.3696 33.8321 44.3632 33.3845C44.4208 31.7325 44.3632 30.0773 44.3568 28.4221C38.2783 28.3094 31.7612 29.9292 27.2895 34.2733ZM4.08606 36.3536C2.90172 38.0023 3.14499 40.1985 3.44588 42.0921C3.72436 43.5927 4.21409 45.4959 5.95218 45.8404C6.56676 43.5669 6.7076 41.1807 6.49314 38.8396C6.37791 37.6996 6.21788 36.5275 5.65132 35.5163C5.03674 35.3231 4.48298 35.9478 4.08606 36.3536ZM45.4547 39.8121C45.3875 41.8537 45.4611 43.9501 46.1589 45.8919C46.8631 45.5248 47.6249 45.1255 47.913 44.3237C48.7549 42.2659 49.0397 39.9119 48.582 37.7254C48.3708 36.5854 47.4873 35.79 46.495 35.3005C45.6916 36.6595 45.5443 38.2664 45.4547 39.8121Z" fill="white"/>
</svg>
