<svg width="68" height="60" viewBox="0 0 68 60" fill="none" xmlns="http://www.w3.org/2000/svg">
<path d="M12.9444 0.581759C15.836 0.0616998 18.9823 1.01861 20.9689 3.21846C23.304 5.44952 23.4288 8.94431 23.1116 11.9502C22.8047 15.8195 19.3048 19.0023 15.4771 19.2155C12.2163 19.6055 8.71116 18.1182 7.00536 15.263C5.6272 13.032 5.68961 10.2913 5.89763 7.77419C6.25127 4.13377 9.36122 1.09662 12.9444 0.581759ZM12.0499 3.88933C8.4875 5.28309 8.11308 9.79722 9.11159 12.9748C10.6042 16.6984 16.0544 17.4837 18.7795 14.6962C20.6465 12.7096 20.4437 9.71401 20.038 7.22293C19.0395 3.99336 15.0351 2.55278 12.0499 3.88933Z" fill="white"/>
<path d="M41.3295 28.9719C46.1505 26.8605 52.1364 28.145 55.7508 31.9414C56.6557 32.9191 57.2798 34.1205 58.1639 35.1242C60.7173 35.3166 63.7545 34.9214 65.6371 37.0796C67.2337 39.3679 67.4417 42.275 67.9982 44.9377V50.1383C67.5197 52.567 67.2129 55.0945 66.0427 57.3151C64.9662 59.1353 62.6884 59.7958 60.6913 59.7906C45.7864 59.775 30.8763 59.7906 15.9714 59.7854C13.6988 59.8634 11.1297 58.8129 10.334 56.5246C8.12893 50.778 8.16535 44.2096 10.3184 38.4526C11.1297 36.1955 13.7144 35.1398 15.9766 35.2334C22.1809 35.2282 28.3852 35.2542 34.5896 35.2282C36.0977 32.4927 38.3704 30.1056 41.3295 28.9719ZM43.2434 31.3642C38.2248 32.8671 35.0472 38.7074 36.6074 43.7312C37.6423 47.59 41.1631 50.596 45.1363 51.012C48.9796 51.5425 52.9997 49.561 54.9707 46.2327C57.4826 42.2646 56.6869 36.596 53.1453 33.512C50.5138 31.1145 46.6289 30.3032 43.2434 31.3642ZM17.5524 37.3136C16.4447 37.4696 14.6193 36.83 14.25 38.2966C12.6743 39.139 12.5702 41.1361 12.1282 42.665C11.3325 46.8879 11.4313 51.4228 13.0747 55.4377C13.7716 57.1071 15.8934 56.8054 17.36 56.9979C17.3808 55.032 17.3756 53.0714 17.3496 51.1108C17.646 51.1108 18.2337 51.1108 18.5301 51.1108C20.0903 52.489 19.2738 54.7148 20.2203 56.379C20.2203 56.5142 20.2203 56.7795 20.2203 56.9147C21.198 56.9095 22.1861 56.9095 23.1742 56.9199C23.1846 54.9957 23.1794 53.0766 23.1274 51.1628C24.1103 51.1264 25.1037 51.1004 26.1022 51.09C26.0554 53.035 26.0554 54.98 26.0606 56.9355C27.0435 56.9147 28.0368 56.8991 29.0353 56.8887C28.9469 54.9489 28.9417 53.009 29.0145 51.0744C29.9766 51.0744 30.9387 51.0796 31.9112 51.09C31.8852 53.0194 31.88 54.9541 31.8384 56.8939C31.984 56.8939 32.2753 56.9043 32.4209 56.9095C33.0866 57.8196 34.2515 57.6011 35.2344 57.6636C43.7166 57.5803 52.2092 57.7624 60.6861 57.5699C60.8681 57.3983 61.2218 57.0447 61.3986 56.8731C62.2411 56.6338 63.3956 56.457 63.7025 55.4845C65.6475 50.2943 65.6423 44.3344 63.5465 39.2014C62.4907 37.8805 60.5509 38.1249 59.0479 38.1093C60.7277 44.7765 56.2032 52.1145 49.5153 53.6331C44.5175 54.98 38.854 52.9154 35.8429 48.7237C33.5494 45.7178 32.8837 41.7446 33.5702 38.0781C32.8109 38.0781 32.0673 38.0781 31.3236 38.0833C31.1155 37.9169 30.6943 37.5893 30.4811 37.4229C26.1854 36.9912 21.8585 37.5373 17.5524 37.3136Z" fill="white"/>
<path d="M42.7971 34.3076C45.4754 33.6159 48.6269 33.3663 50.8632 35.3373C54.3892 37.9168 54.4204 43.6843 51.1128 46.4562C48.1589 49.1813 43.0259 48.6924 40.6648 45.4316C38.8082 43.263 39.0214 40.2571 39.4895 37.6412C40.4724 38.1352 41.3825 38.8893 42.5058 39.0609C43.3899 39.1545 44.1076 38.1976 44.092 37.3811C43.8164 36.2942 43.2391 35.3217 42.7971 34.3076ZM46.0058 40.3039C45.0749 41.6092 43.3847 41.8536 41.991 42.3737C42.8699 43.4398 43.7072 44.766 45.1477 45.13C47.3268 45.8269 49.9531 44.4123 50.4888 42.1657C51.2064 39.8566 49.5526 37.0951 47.1292 36.7571C46.8015 37.948 46.8223 39.3054 46.0058 40.3039Z" fill="white"/>
<path d="M4.12745 23.9325C8.24632 21.7586 13.0673 19.9592 17.7582 21.1709C21.3414 22.1435 25.1586 23.3708 27.7173 26.2259C29.5635 28.3009 28.8563 31.2653 29.0227 33.798C28.0242 33.7772 27.0361 33.7616 26.0532 33.7304C26.0376 32.191 26.152 30.6412 25.9647 29.1122C25.6891 27.9421 24.6334 27.2192 23.6765 26.6212C21.4818 25.321 19.0532 24.4161 16.5569 23.9065C13.3949 23.22 10.207 24.3589 7.32063 25.5758C5.69284 26.3975 3.74781 27.2504 3.01973 29.0498C2.8377 34.7705 3.00414 40.5067 2.93653 46.2326C2.6505 48.1932 4.68911 49.1605 5.80724 50.4139C5.88004 53.5082 5.76046 56.6026 5.86967 59.6969C4.87116 59.7593 3.88303 59.8061 2.90012 59.8581C2.90012 57.2058 3.01974 54.5535 2.87413 51.9064C2.15124 50.6947 0.88229 49.9354 0.0709979 48.8017C-0.0538163 42.5558 0.0606043 36.3047 0.013799 30.0587C-0.189024 27.3388 1.8756 25.1234 4.12745 23.9325Z" fill="white"/>
<path d="M32.4272 56.9095C42.0847 56.9147 51.7474 56.9875 61.4049 56.873C61.2281 57.0447 60.8745 57.3983 60.6925 57.5699C52.2155 57.7624 43.7229 57.5803 35.2408 57.6635C34.2578 57.6011 33.0929 57.8196 32.4272 56.9095Z" fill="white"/>
<path d="M17.5563 37.3137C21.8624 37.5373 26.1892 36.9913 30.4849 37.4229C30.6982 37.5893 31.1194 37.9169 31.3274 38.0834C25.638 38.2186 19.9278 37.8286 14.2539 38.2966C14.6231 36.83 16.4485 37.4697 17.5563 37.3137Z" fill="white"/>
<path d="M18.5347 51.1108C18.9663 51.116 19.8348 51.1212 20.2665 51.1212C20.2405 52.8738 20.2301 54.6264 20.2249 56.379C19.2784 54.7149 20.0948 52.489 18.5347 51.1108Z" fill="white"/>
</svg>
