<svg width="62" height="60" viewBox="0 0 62 60" fill="none" xmlns="http://www.w3.org/2000/svg">
<path d="M22.4897 9.33568C23.2111 4.82709 26.9267 1.0369 31.4081 0.239222C37.3471 -1.11335 43.7505 3.44479 44.5164 9.49422C45.1389 13.334 43.6221 17.357 40.6427 19.8442C43.2317 20.0968 45.9196 19.5766 48.4494 20.2603C50.3862 21.6575 49.2597 24.4122 49.5907 26.4039C52.4564 24.7887 55.2431 23.0398 58.0792 21.38C59.433 20.5081 61.8146 21.0877 61.9381 22.906C62.0418 29.6887 61.9381 36.4813 61.9875 43.264C62.0764 44.3937 61.7009 45.7066 60.5447 46.1327C59.5714 46.6331 58.4893 46.1723 57.6395 45.6521C54.9615 44.027 52.3082 42.3574 49.5759 40.8215C49.5709 42.5754 49.5858 44.3293 49.4622 46.0831C48.6668 46.6727 47.8564 47.4506 46.7843 47.3366C41.1664 47.3812 35.5486 47.2673 29.9357 47.3911C32.841 51.0971 35.9883 54.6346 38.6564 58.5288C38.4341 58.8657 37.9845 59.5495 37.7621 59.8864C36.2897 59.7377 35.5437 58.3505 34.6691 57.3397C32.2827 54.2432 29.7381 51.2755 27.3961 48.1442C24.1548 51.6867 21.4274 55.6651 18.2998 59.2968C17.7168 60.2877 16.0764 59.708 16.195 58.5982C16.0616 57.9343 16.6496 57.4487 16.9559 56.9384C19.5548 53.7775 22.0549 50.5422 24.639 47.3713C18.8186 47.292 12.9933 47.3664 7.17287 47.3317C6.65407 47.1335 6.13034 46.9452 5.6066 46.7669C4.41089 44.2054 5.18662 41.2872 4.96922 38.5672C3.33871 38.582 1.6835 38.696 0.0925244 38.2749C-0.00629411 35.4805 -0.0359406 32.6812 0.0529961 29.8919C0.0529961 29.3865 0.265458 28.9901 0.70026 28.7028C2.12325 28.5789 3.54623 28.6483 4.96922 28.6433C5.00875 26.5674 4.90993 24.4865 4.99886 22.4155C5.03839 21.5336 5.4139 20.4585 6.35762 20.2058C8.07212 19.7005 9.88544 19.968 11.6395 19.8887C10.5129 18.1695 9.62357 16.1481 9.9892 14.0424C10.3005 11.04 12.6079 8.43891 15.5329 7.75023C17.9639 6.94761 20.4689 7.99796 22.4897 9.33568ZM32.2579 2.60747C29.0859 3.09301 26.2597 5.41171 25.2616 8.48845C23.468 13.2299 26.8674 19.0068 31.8577 19.7649C36.8777 20.9242 42.1299 16.6733 42.1546 11.5503C42.5252 6.34812 37.3718 1.71566 32.2579 2.60747ZM16.9114 9.97976C13.3194 10.2374 11.0169 14.8649 13.3144 17.7682C15.1574 20.8549 20.3207 20.513 21.7486 17.2183C23.72 13.9434 20.5875 9.52394 16.9114 9.97976ZM24.0857 17.684C23.9819 18.0259 23.7793 18.7046 23.6756 19.0465C23.4829 19.2447 23.0925 19.646 22.8998 19.8442C24.0708 19.8887 25.2418 19.8788 26.4128 19.8392C25.642 19.1158 24.8713 18.3925 24.0857 17.684ZM7.44956 22.47C7.46438 29.9216 7.43474 37.3781 7.46933 44.8297C20.6814 44.8544 33.8934 44.795 47.1054 44.8594C47.1548 37.4128 47.0906 29.9662 47.1351 22.5245C45.2032 22.4899 43.2713 22.2818 41.3344 22.4155C33.5821 22.797 25.8199 22.0687 18.0726 22.5047C14.5299 22.6137 10.9873 22.3164 7.44956 22.47ZM49.566 29.3568C49.566 32.1957 49.5561 35.0297 49.566 37.8636C52.8764 39.8256 56.172 41.8124 59.4479 43.8289C59.4726 37.0164 59.5269 30.204 59.4231 23.3916C56.1967 25.4774 52.8567 27.375 49.566 29.3568ZM2.48887 36.1048C3.31895 36.0998 4.14902 36.0998 4.9791 36.0998C4.9791 34.445 4.97416 32.7952 4.95933 31.1404C4.13914 31.1354 3.31895 31.1305 2.5037 31.1255C2.49382 32.7853 2.48887 34.4401 2.48887 36.1048Z" fill="white"/>
<path d="M14.8559 29.8437C18.6705 29.3709 22.5244 29.7268 26.3538 29.62C30.6894 29.7268 35.0497 29.3862 39.3706 29.8183C39.459 32.1925 39.5033 34.5718 39.3656 36.946C37.3502 37.4849 35.2659 37.3121 33.2112 37.3222C27.4598 37.3171 21.7134 37.3324 15.962 37.3171C15.6818 37.1799 15.1214 36.9003 14.8363 36.763C14.7822 34.4549 14.7724 32.1468 14.8559 29.8437ZM17.2646 32.223C17.2646 33.0517 17.2646 33.8804 17.2597 34.7142C23.8369 34.7142 30.4141 34.7243 36.9914 34.7091C36.9864 33.8855 36.9864 33.067 36.9815 32.2485C30.4092 32.1925 23.8369 32.2332 17.2646 32.223Z" fill="white"/>
</svg>
